<?xml version="1.0" encoding="UTF-8"?>
<!-- Generated by Pixelmator Pro 3.6.14 -->
<svg width="807" height="243" viewBox="0 0 807 243" xmlns="http://www.w3.org/2000/svg">
    <g id="AIRCORE-BEARINGS">
        <path id="BEARINGS---shape" fill="#000000" fill-rule="evenodd" stroke="none" d="M 770.264038 219 C 784.984009 219 794.828003 209.708008 794.828003 196.828003 C 794.828003 183.947998 785.536011 174.839996 772.747986 174.839996 L 765.664001 174.839996 C 760.604004 174.839996 757.108032 171.528 757.108032 167.112 C 757.108032 163.063995 760.420044 159.751999 765.664001 159.751999 L 790.135986 159.751999 L 790.135986 147.23999 L 766.307983 147.23999 C 752.968018 147.23999 743.952026 155.79599 743.952026 167.019989 C 743.952026 178.428009 752.875977 186.524002 764.559998 186.524002 L 770.264038 186.524002 C 777.992004 186.524002 783.604004 190.664001 783.604004 196.552002 C 783.604004 202.440002 777.992004 206.488007 770.264038 206.488007 L 745.14801 206.488007 L 745.14801 219 Z M 692.891968 176.403992 L 692.891968 188.824005 L 709.635986 188.824005 L 709.635986 206.488007 L 705.864014 206.488007 C 691.787964 206.488007 682.127991 196.828003 682.127991 183.395996 C 682.127991 169.779999 692.156006 159.751999 705.864014 159.751999 L 716.35199 159.751999 L 716.35199 147.23999 L 705.864014 147.23999 C 684.335999 147.23999 669.708008 161.59201 669.708008 182.384003 C 669.708008 203.084 684.612 219 705.864014 219 L 721.411987 219 L 721.411987 176.403992 Z M 635.023987 215.412003 C 637.875977 218.356003 639.900024 219.735992 642.936035 219.735992 C 646.063965 219.735992 647.627991 217.436005 647.627991 212.835999 L 647.627991 147.23999 L 635.667969 147.23999 L 635.667969 197.011993 L 600.615967 150.919998 C 598.407959 148.067993 596.384033 147.23999 593.900024 147.23999 C 589.94397 147.23999 587.828003 149.723999 587.828003 153.496002 L 587.828003 219 L 599.880005 219 L 599.880005 169.227997 Z M 564 219 L 564 147.23999 L 551.488037 147.23999 L 551.488037 219 Z M 506.960022 195.632004 C 523.796021 192.964005 529.131958 181.279999 529.131958 171.804001 C 529.131958 155.888 517.171997 147.23999 502.083984 147.23999 L 475.495972 147.23999 L 475.495972 219 L 488.007996 219 L 488.007996 159.751999 L 501.807983 159.751999 C 511.007996 159.751999 516.160034 163.891998 516.160034 172.080002 C 516.160034 180.820007 509.719971 185.052002 496.471985 185.972 C 491.504028 186.339996 489.02002 188.455994 489.02002 192.412003 C 489.02002 194.528 490.216003 196.552002 492.424011 198.852005 L 511.468018 219 L 528.947998 219 Z M 393.799988 219 L 408.703979 219 L 439.432007 170.515991 L 439.432007 219 L 451.85199 219 L 451.85199 152.944 C 451.85199 149.171997 449.828003 146.688004 446.608002 146.688004 C 443.755981 146.688004 441.179993 147.791992 439.432007 150.459991 Z M 377.424011 206.488007 L 354.332001 206.488007 L 354.332001 188.824005 L 373.744019 188.824005 L 373.744019 176.403992 L 354.332001 176.403992 L 354.332001 159.751999 L 376.872009 159.751999 L 376.872009 147.23999 L 341.820007 147.23999 L 341.820007 219 L 377.424011 219 Z M 292.416016 159.567993 C 302.26001 159.567993 306.032013 161.959991 306.032013 167.847992 C 306.032013 173.643997 302.812012 176.311996 297.384003 176.311996 L 288.735992 176.311996 L 288.735992 188.731995 L 297.384003 188.731995 C 302.812012 188.731995 307.044006 191.675995 307.044006 197.656006 C 307.044006 203.636002 300.971985 206.395996 292.416016 206.395996 L 281.467987 206.395996 L 281.467987 159.567993 Z M 308.884003 181.188004 C 315.783997 177.968002 317.899994 171.436005 317.899994 165.731995 C 317.899994 153.311996 309.067993 147.14801 293.152008 147.14801 L 268.955994 147.14801 L 268.955994 218.908005 L 290.484009 218.908005 C 310.080017 218.908005 319.096008 209.432007 319.096008 197.656006 C 319.096008 191.675995 316.612 184.591995 308.884003 181.188004 Z"/>
        <path id="AIRCORE---shape" fill="#000000" fill-rule="evenodd" stroke="none" d="M 787.867126 109.605591 L 755.76416 109.605591 L 755.76416 85.048798 L 782.751099 85.048798 L 782.751099 67.782303 L 755.76416 67.782303 L 755.76416 44.632401 L 787.09967 44.632401 L 787.09967 27.238007 L 738.369812 27.238007 L 738.369812 127 L 787.867126 127 Z M 698.209229 94.513397 C 721.614868 90.804291 729.033081 74.561005 729.033081 61.387299 C 729.033081 39.26059 712.406128 27.238007 691.430542 27.238007 L 654.467407 27.238007 L 654.467407 127 L 671.861816 127 L 671.861816 44.632401 L 691.046814 44.632401 C 703.836792 44.632401 710.999207 50.387909 710.999207 61.770996 C 710.999207 73.921509 702.046204 79.804901 683.628601 81.083893 C 676.721985 81.59549 673.268677 84.537201 673.268677 90.036896 C 673.268677 92.978607 674.931396 95.792404 678.000977 98.989899 L 704.476318 127 L 728.777344 127 Z M 594.738098 127 C 624.027222 127 645.002808 104.745392 645.002808 76.095795 C 645.002808 47.829895 625.178345 27.238007 594.738098 27.238007 L 591.796387 27.238007 C 561.739868 27.238007 541.531738 47.446198 541.531738 76.095795 C 541.531738 104.745392 562.379395 127 591.796387 127 Z M 594.738098 44.632401 C 613.923096 44.632401 627.736328 58.445602 627.736328 77.502701 C 627.736328 95.920303 614.434692 109.605591 594.738098 109.605591 L 591.796387 109.605591 C 572.355591 109.605591 558.798218 96.304001 558.798218 77.502701 C 558.798218 58.189789 572.867188 44.632401 591.796387 44.632401 Z M 535.392456 127 L 535.392456 109.605591 L 520.81189 109.605591 C 501.243164 109.605591 487.685791 96.176102 487.685791 77.502701 C 487.685791 58.573502 501.754822 44.632401 520.81189 44.632401 L 535.392456 44.632401 L 535.392456 27.238007 L 520.81189 27.238007 C 490.883301 27.238007 470.54718 47.190399 470.54718 76.095795 C 470.54718 104.873291 491.139099 127 520.81189 127 Z M 432.688782 94.513397 C 456.094482 90.804291 463.512695 74.561005 463.512695 61.387299 C 463.512695 39.26059 446.885681 27.238007 425.910095 27.238007 L 388.946991 27.238007 L 388.946991 127 L 406.3414 127 L 406.3414 44.632401 L 425.526398 44.632401 C 438.316406 44.632401 445.478821 50.387909 445.478821 61.770996 C 445.478821 73.921509 436.525818 79.804901 418.108215 81.083893 C 411.201599 81.59549 407.748291 84.537201 407.748291 90.036896 C 407.748291 92.978607 409.411011 95.792404 412.480591 98.989899 L 438.955902 127 L 463.256897 127 Z M 377.563904 127 L 377.563904 27.238007 L 360.169495 27.238007 L 360.169495 127 Z M 268.337311 127 L 289.057098 127 L 331.775696 59.59671 L 331.775696 127 L 349.042206 127 L 349.042206 35.167801 C 349.042206 29.923904 346.228394 26.470596 341.751892 26.470596 C 337.786987 26.470596 334.205811 28.005402 331.775696 31.714508 Z"/>
    </g>
    <g id="Group">
        <path id="Shape-66c" fill="#000000" fill-rule="evenodd" stroke="none" d="M 172.5 203.253601 C 168.100006 203.508392 160 203.369003 154.5 202.943817 C 149 202.518646 139.194122 200.980652 132.709167 199.526062 C 126.224213 198.071472 116.324219 195.338013 110.709167 193.451706 C 105.094131 191.565399 95.550003 187.654602 89.5 184.761047 C 83.449997 181.867462 74 176.498322 68.5 172.82959 C 63 169.160858 55.270271 163.4039 51.32283 160.036377 C 47.375381 156.668854 41.663269 150.670532 38.62925 146.706802 C 35.595222 142.743057 31.870392 136.800003 30.351845 133.5 C 28.583031 129.656128 27.441833 125.238419 27.176163 121.206543 C 26.883904 116.771072 27.281258 113.552063 28.522102 110.302948 C 29.490448 107.76738 31.904114 103.898132 33.885803 101.704651 C 35.867485 99.511154 39.170532 96.654892 41.225906 95.357391 C 43.281273 94.059891 48.23378 91.906647 52.231468 90.572418 C 56.229164 89.238174 64.108559 87.616516 69.741249 86.968735 C 77.521904 86.073914 82.807678 86.066727 91.741241 86.938766 C 98.208557 87.570068 106.875 88.773895 111 89.613922 C 115.125 90.453949 122.100006 92.185165 126.5 93.46106 C 130.899994 94.736938 137.425003 96.894119 141 98.254761 C 144.574997 99.615402 150.649994 102.252213 154.5 104.114334 C 158.350006 105.976456 163.585648 109.564224 166.134781 112.087158 C 168.823334 114.748093 171.065018 118.019516 171.47316 119.877808 C 171.96138 122.100632 171.691345 123.822113 170.591049 125.501373 C 169.651459 126.935379 167.272552 128.390259 164.75267 129.071991 C 162.390579 129.711029 157.99855 129.963303 154.873199 129.639465 C 151.778473 129.318787 146.153473 127.897964 142.373199 126.482071 C 138.592941 125.066177 132.206528 122.827621 128.181183 121.507507 C 124.155838 120.187408 117.630829 118.568588 113.681183 117.910141 C 109.731537 117.251694 102.449997 116.920334 97.5 117.173752 C 91.120926 117.500351 87.04393 118.285797 83.5 119.87088 C 80.75 121.100876 77.207077 123.320602 75.626839 124.803619 C 74.0466 126.286621 72.134102 128.948044 71.376839 130.71788 C 70.619576 132.487717 70.004395 135.41272 70.009766 137.21788 C 70.015144 139.023041 71.116821 142.856842 72.457939 145.737427 C 73.799065 148.618027 77.057167 153.288055 79.698166 156.115265 C 82.339172 158.94249 86.975006 162.936554 90 164.990967 C 93.024994 167.045395 98.311264 170.143723 101.747238 171.876144 C 105.183228 173.608582 110.358231 175.898743 113.247238 176.965424 C 116.136261 178.032104 121.875 179.797699 126 180.888962 C 130.125 181.980225 137.550003 183.464142 142.5 184.186539 C 147.449997 184.908936 156.005157 185.5 161.511475 185.5 C 167.017792 185.5 174.442001 184.89679 178.00975 184.159515 C 181.577484 183.422241 186.856079 181.82402 189.739944 180.607895 C 192.62381 179.391754 196.942917 177.015503 199.337967 175.327332 C 202.171829 173.329834 204.619339 170.398148 206.346283 166.932602 C 208.365234 162.881104 209 160.115082 209 155.368744 C 209 151.937546 208.537415 147.913498 207.972015 146.426407 C 207.406647 144.939331 207.155792 143.51088 207.414581 143.25209 C 207.67337 142.993301 209.544678 145.3759 211.573059 148.546768 C 213.60144 151.717621 216.157776 156.829285 217.253845 159.905975 C 218.460205 163.292374 219.256012 168.102448 219.270386 172.094482 C 219.289764 177.478943 218.771912 179.648438 216.44809 183.91803 C 214.882782 186.794006 211.930267 190.471191 209.886932 192.089539 C 207.843597 193.707901 203.77063 196.118973 200.835892 197.447479 C 197.901154 198.776001 192.125 200.521637 188 201.32666 C 183.875 202.131668 176.899994 202.998795 172.5 203.253601 Z"/>
        <path id="Shape" fill="#000000" fill-rule="evenodd" stroke="none" d="M 157.810684 219.99826 C 152.974045 219.975647 146.716064 219.711395 143.904068 219.411072 C 141.092072 219.110733 136.39859 218.474182 133.474121 217.996506 C 130.549637 217.518829 126.040222 216.67778 123.453178 216.127502 C 120.866135 215.57724 116.41568 214.482391 113.563286 213.694504 C 110.710869 212.906616 106.008774 211.450775 103.114166 210.459305 C 100.219574 209.467819 95.467125 207.705627 92.553185 206.543289 C 89.639229 205.380966 84.678291 203.190872 81.528847 201.676422 C 78.379402 200.161957 73.426414 197.589539 70.522186 195.959915 C 67.617958 194.330292 62.503883 191.151337 59.157558 188.895569 C 55.811245 186.639801 50.733086 182.925934 47.872749 180.642532 C 45.012413 178.359131 40.367847 174.189453 37.551487 171.376602 C 34.735119 168.563736 31.178059 164.697815 29.6469 162.785645 C 28.115742 160.873505 25.440966 157.192337 23.702959 154.605286 C 21.964951 152.01825 19.475986 147.706985 18.171925 145.024673 C 16.867861 142.342377 15.193631 138.293106 14.451413 136.026276 C 13.709194 133.75946 12.776253 129.972183 12.37822 127.610107 C 11.98018 125.248032 11.655485 121.658905 11.656672 119.634262 C 11.657857 117.609619 11.976978 114.401779 12.365825 112.505722 C 12.754671 110.60965 12.803021 107.637558 14.654418 108.386276 C 15.915223 108.896149 15.107516 113.662598 15.208916 116.362122 C 15.341958 119.904106 15.695654 122.408859 16.479582 125.360512 C 17.077051 127.610107 18.395481 131.417358 19.409426 133.821075 C 20.423376 136.224777 22.522583 140.328491 24.074324 142.94043 C 25.626066 145.552368 28.175051 149.383545 29.738726 151.454117 C 31.302401 153.524704 34.207897 156.978226 36.195393 159.128601 C 38.182888 161.278992 41.563404 164.684052 43.707657 166.695435 C 45.851906 168.706818 49.358192 171.759903 51.499393 173.480072 C 53.64061 175.200256 57.131866 177.841324 59.257763 179.349106 C 61.383663 180.856903 66.067978 183.850449 69.667328 186.00145 C 73.266678 188.152451 78.696404 191.156204 81.733353 192.676468 C 84.770309 194.196732 89.923935 196.579453 93.18586 197.971405 C 96.447777 199.363342 102.652008 201.682953 106.973045 203.126053 C 111.294098 204.569168 118.10424 206.572678 122.106705 207.578308 C 126.109184 208.583923 132.05278 209.856934 135.314697 210.407227 C 138.576614 210.957504 143.638214 211.649292 146.562683 211.944519 C 149.663544 212.257568 156.997955 212.481323 164.158478 212.481323 C 173.600357 212.481323 177.805328 212.309082 182.359772 211.735764 C 185.617279 211.325699 191.11821 210.26709 194.584045 209.383286 C 198.049911 208.499481 203.01947 206.932922 205.627533 205.902023 C 208.235611 204.871109 212.026001 203.087646 214.050644 201.938766 C 216.075287 200.789886 218.956741 199.096725 220.390411 197.961182 C 221.882004 196.779785 223.264786 194.734283 224.480606 195.50708 C 225.913971 196.418152 223.379349 197.943527 222.12326 199.053513 C 220.99881 200.04718 219.451904 201.428787 218.551285 202.173309 C 217.65065 202.917847 215.717392 204.371719 214.255157 205.404144 C 212.792908 206.436584 209.847977 208.208496 207.710861 209.341721 C 205.573761 210.474945 201.984619 212.130539 199.735016 213.020813 C 197.485413 213.911102 193.620193 215.205902 191.145645 215.898163 C 188.671082 216.590439 184.621796 217.540039 182.147247 218.008408 C 179.672699 218.476776 175.163254 219.125351 172.126312 219.449692 C 168.898575 219.794403 162.951141 220.022308 157.810684 219.99826 Z"/>
        <path id="Path" fill="#000000" fill-rule="evenodd" stroke="none" d="M 23.922979 79.524841 C 23.095856 83.072449 60.20517 53.603531 130.676651 72.571533 C 223.899078 97.663162 233.753784 163.222 235.385239 159.692352 C 241.982071 145.420197 237.661499 52.641891 148.26442 30.442688 C 75.748459 12.43541 26.02887 70.492493 23.922979 79.524841 Z"/>
    </g>
</svg>
