<?xml version="1.0" encoding="UTF-8"?>
<!-- Generated by Pixelmator Pro 3.6.14 -->
<svg width="1365" height="1365" viewBox="0 0 1365 1365" xmlns="http://www.w3.org/2000/svg">
    <g id="Group">
        <path id="Path" fill="#ffffff" stroke="none" d="M 291.066681 424.333313 C 284.933319 427 281.333344 433.533325 281.333344 441.799988 C 281.333344 445.533325 281.066681 448.866638 280.666656 449.266663 C 280.133331 449.666687 277.333344 449.400024 274.266663 448.733337 C 262 445.93335 231.333328 442.333313 207.600006 440.733337 C 170.133331 438.333313 114.26667 442.200012 97.73333 448.466675 C 87.333336 452.333313 83.466667 461.93335 89.333336 469.400024 C 95.333336 477 119.066666 480.866638 166.800003 481.93335 C 204.266663 482.733337 224 481.533325 257.066681 476.200012 C 268.266663 474.466675 278.266663 473 279.333344 473 C 281.066681 473 281.333344 476.333313 281.333344 492.866638 L 281.333344 512.599976 L 276.133331 513.400024 C 269.200012 514.333313 264.133331 516.866638 260.799988 521.400024 C 258.266663 524.733337 257.866669 527.533325 257.333344 546.06665 L 256.666656 566.866638 L 250.666672 567.93335 C 243.600006 569.133362 238.933334 572.333313 235.333328 578.466675 C 233.066666 582.333313 232.666672 585.133362 232.933334 598.333313 C 233.333328 624.866638 240 643.93335 253.866669 657.799988 C 272.399994 676.200012 298.533325 680.599976 323.733337 669.533325 C 337.066681 663.666687 350.266663 648.06665 352.666656 635.266663 C 353.200012 632.599976 354.133331 630.333313 354.933319 630.333313 C 355.600006 630.333313 365.466675 633.666687 377.066681 637.799988 C 406.266663 648.200012 450 661.133362 475.333344 667 C 487.066681 669.666687 497.200012 671.93335 497.733337 672.06665 C 498.399994 672.333313 494.266663 675.266663 488.666656 678.866638 C 475.600006 687.133362 458.133331 703.666687 447.200012 718.200012 C 436.533325 732.333313 420.666656 763.799988 413.333344 785.666687 C 402.666656 816.866638 395.333344 851.666687 390.266663 894.866699 C 388.666656 909.266663 388.533325 909.533325 384.799988 910.466675 C 373.066681 913.666626 368.533325 929.133301 376.266663 939 C 381.200012 945.266663 386 946.333374 408.266663 946.333374 C 426.133331 946.333374 429.200012 946.06665 434.266663 943.533325 C 441.066681 940.200012 444 935.400024 444 927.400024 C 444 919.93335 440.133331 913.666626 434.133331 911.533325 C 428.266663 909.400024 428.133331 908.200012 431.866669 883 C 437.200012 846.599976 448.399994 807.266663 460.799988 781 C 472.933319 755.533325 493.066681 729.799988 512.133362 715.93335 C 519.333313 710.733337 542.400024 697 544 697 C 544.400024 697 546.400024 700.200012 548.266663 703.93335 C 555.06665 717.799988 568.266663 729.133362 583.599976 734.733337 C 591.200012 737.533325 593.466675 737.666687 676.93335 738.06665 C 771.333313 738.466675 772 738.466675 788.266663 730.200012 C 798.533325 725 810.400024 713.799988 815.333313 704.599976 C 817.333313 700.866638 819.200012 697.533325 819.466675 697.266663 C 820.133362 696.333313 833.333313 703.799988 845.06665 711.666687 C 882.799988 736.866638 908.93335 779.666687 924.533325 842.06665 C 929.466675 861.799988 934.666687 893.266663 934.666687 903.666626 C 934.666687 909.400024 934.400024 909.93335 930.400024 911 C 924.533325 912.866699 921.06665 918.200012 920.266663 926.599976 C 919.866638 932.466675 920.266663 934.466675 922.93335 938.333374 C 924.799988 941 928 943.666626 930.666687 944.599976 C 936.533325 946.599976 973.466675 946.866699 980.266663 945 C 989.06665 942.466675 995.06665 931.799988 992.799988 922.733337 C 991.466675 917.666626 983.599976 910.333374 979.466675 910.333374 C 975.599976 910.333374 976 911.93335 972.666687 882.333374 C 967.466675 836.466675 954.533325 787.93335 938 753.666687 C 928.799988 734.333313 917.06665 717 903.733337 703 C 893.06665 691.666687 874.666687 676.733337 869.333313 675 C 864.799988 673.533325 866.400024 672.333313 875.06665 670.466675 C 905.599976 664.333313 955.06665 649.93335 990.400024 636.866638 C 1000.266663 633.266663 1008.666687 630.333313 1009.333313 630.333313 C 1009.866638 630.333313 1011.06665 633.133362 1011.866638 636.599976 C 1014.133362 645.400024 1018.666687 652.733337 1026.400024 659.93335 C 1035.466675 668.333313 1044.800049 672.866638 1057.466675 674.599976 C 1094.133301 680.06665 1125.06665 655.266663 1131.599976 615.533325 C 1136.400024 585.533325 1130.666626 569.93335 1114.133301 568.06665 L 1108 567.266663 L 1108 547.799988 C 1108 531.533325 1107.599976 527.533325 1105.599976 523.666687 C 1102.800049 518.466675 1093.733276 513 1087.733276 513 L 1084 513 L 1084 493 C 1084 481.93335 1084.133301 473 1084.400024 473 C 1084.666626 473 1094.133301 474.466675 1105.466675 476.200012 C 1138.533325 481.400024 1160.533325 482.733337 1197.06665 481.93335 C 1239.466675 481 1262.533325 477.666687 1272.133301 471.266663 C 1276 468.733337 1276.666626 467.266663 1277.06665 462.466675 C 1277.599976 455.666687 1275.199951 452.466675 1267.333374 448.866638 C 1249.199951 440.866638 1177.199951 437.533325 1132 442.466675 C 1119.06665 443.93335 1090.533325 448.466675 1086.400024 449.799988 C 1084.266724 450.466675 1084 449.533325 1084 442.733337 C 1084 433.266663 1080.666626 427 1074 424.200012 C 1068 421.799988 1063.466675 421.799988 1057.733276 424.599976 C 1051.06665 427.666687 1048 433.400024 1048 442.466675 L 1048 449.799988 L 1033.733276 447.400024 C 976.799988 437.93335 901.200012 437.799988 867.599976 447.266663 C 858.266663 449.799988 853.333313 454.866638 853.333313 461.93335 C 853.333313 475.400024 873.466675 480.466675 933.599976 481.93335 C 973.866638 482.866638 1002.400024 480.733337 1043.06665 473.533325 L 1048 472.599976 L 1048 492.599976 L 1048 512.599976 L 1041.333374 513.400024 C 1032.93335 514.466675 1030.400024 515.799988 1025.733276 521.93335 C 1022 526.733337 1022 527.133362 1021.466675 548.466675 L 1021.06665 570.200012 L 1013.466675 572.466675 C 1000.400024 576.200012 955.599976 584.599976 906.666687 592.200012 C 848.266663 601.400024 831.466675 604.333313 822.400024 607.133362 C 820.400024 607.666687 820 607 820 603.533325 C 820 596.466675 816 582.200012 811.599976 573.93335 C 803.599976 558.733337 783.866638 544.333313 764 539.533325 C 758.266663 538.06665 740.400024 537.666687 681.333313 537.666687 L 606 537.666687 L 596 540.866638 C 577.333313 546.733337 565.06665 554.866638 556.266663 567.533325 C 549.466675 577.133362 546 585.666687 544.266663 597.533325 C 543.466675 602.466675 542.666687 606.866638 542.400024 607 C 542.133362 607.266663 537.733337 606.333313 532.400024 605 C 523.333313 602.599976 501.466675 598.866638 424.266663 586.333313 C 387.866669 580.466675 360.933319 575.400024 349.733337 572.200012 L 342.666656 570.200012 L 342.666656 551.266663 C 342.666656 540.866638 342 530.200012 341.333344 527.533325 C 339.066681 519.666687 329.600006 513 320.533325 513 L 317.333344 513 L 317.333344 493 C 317.333344 481.93335 317.733337 473 318.133331 473 C 318.533325 473 328.533325 474.466675 340.399994 476.200012 C 375.200012 481.533325 394.533325 482.733337 430.533325 481.93335 C 475.066681 481 501.200012 476.866638 507.600006 470.06665 C 514.666687 462.466675 512.133362 453.799988 501.733337 449.266663 C 482.133331 440.866638 412 437.400024 365.466675 442.466675 C 351.600006 443.93335 322.666656 448.599976 319.333344 449.799988 C 317.733337 450.466675 317.333344 449.400024 317.333344 443.400024 C 317.333344 427.400024 304.933319 418.333313 291.066681 424.333313 Z"/>
        <path id="path1" fill="#ffffff" stroke="none" d="M 619.733337 766.333313 C 614.400024 770.466675 612.799988 775.799988 613.733337 786.733337 C 615.466675 808.599976 625.599976 825 640 829 C 646.93335 830.866638 717.733337 830.733337 724.266663 828.733337 C 737.200012 824.866638 747.466675 809.93335 750.666687 790.866638 C 752.533325 778.866638 750.93335 771.93335 745.200012 767.133362 L 741.06665 763.666687 L 682.133362 763.666687 C 625.333313 763.666687 622.93335 763.799988 619.733337 766.333313 Z"/>
    </g>
</svg>
