<?xml version="1.0" encoding="UTF-8"?>
<!-- Generated by Pixelmator Pro 3.6.14 -->
<svg width="1365" height="1365" viewBox="0 0 1365 1365" xmlns="http://www.w3.org/2000/svg">
    <g id="Group">
        <path id="Path" fill="#ffffff" stroke="none" d="M 197.866669 243.533325 C 189.46666 248.733276 184.266663 259.533325 186 268.06665 C 187.46666 274.733276 192.133331 282.199951 196.800003 285.133301 C 199.066666 286.466675 204.666672 288.06665 209.199997 288.466675 L 217.333328 289.400024 L 217.333328 385.799988 C 217.333328 471.666687 217.600006 482.333313 219.46666 484.200012 C 221.333328 486.06665 251.733337 486.333313 535.06665 486.333313 C 730.400024 486.333313 849.466675 485.799988 850.666687 485 C 852.400024 483.93335 852.799988 471 853.333313 386.733337 L 854 289.666626 L 863.06665 288.599976 C 873.200012 287.533325 877.733337 285.666626 882.93335 280.06665 C 892.533325 269.93335 891.06665 252.866699 879.733337 244.733276 L 875.333313 241.666626 L 538.666687 241.400024 C 210.800003 241 201.866669 241 197.866669 243.533325 Z"/>
        <path id="path1" fill="#ffffff" stroke="none" d="M 992.93335 469.266663 C 985.866638 470.733337 981.200012 474.200012 959.733337 493.799988 C 917.866638 532.06665 874.266663 584.200012 843.333313 633.133362 C 807.333313 689.799988 766.799988 777.799988 754.533325 825.666687 C 745.06665 862.599976 744.400024 900.866699 752.799988 938.200012 C 761.333313 975.93335 778.666687 1010.333374 804.666687 1040.866699 C 826.133362 1066.06665 859.06665 1088.866699 888.266663 1098.866699 C 898.400024 1102.333374 905.333313 1103.266602 905.333313 1101.266602 C 905.333313 1100.733398 898.93335 1093.666626 891.06665 1085.533325 C 864.533325 1058.466675 849.06665 1031.133301 842.533325 1000.333374 C 838.93335 983.400024 840.93335 951 846.666687 936.333374 L 848.133362 932.466675 L 861.06665 945.93335 C 869.06665 954.333374 875.466675 959.93335 877.733337 960.466675 C 883.333313 961.799988 890.533325 959.93335 894.400024 956.06665 C 897.599976 952.866699 897.733337 952.466675 896.93335 939.133301 C 896.400024 931.799988 895.06665 920.599976 894 914.333374 C 883.733337 855.266663 894.133362 815.400024 933.333313 763 C 945.200012 747.266663 960.93335 729 962.666687 729 C 965.06665 729 966.533325 743.133362 966.400024 766.333313 C 966.266663 801.799988 970.133362 821.266663 982.666687 847 C 988.266663 858.466675 994.400024 867.93335 1014 895 C 1037.06665 926.599976 1048.666626 953.93335 1050.266724 979.666626 C 1052.666626 1019.266663 1037.199951 1056.06665 1002.93335 1092.06665 C 990.666687 1104.866699 991.200012 1106.333374 1006.266663 1103.800049 C 1037.06665 1098.733398 1072.93335 1078.599976 1101.466675 1050.333374 C 1130.266724 1021.799988 1148.133301 990.733337 1157.866699 952.333374 C 1162.533325 933.266663 1164 920.866699 1164 898.333374 C 1164 829.93335 1138.800049 765.133362 1080.133301 682.333313 C 1027.866699 608.866638 1009.333313 572.599976 1003.466675 532.599976 C 1000.93335 515.93335 1000.799988 506.466675 1002.799988 489.799988 C 1005.200012 471.133362 1003.200012 467 992.93335 469.266663 Z"/>
        <path id="path2" fill="#ffffff" stroke="none" d="M 199.199997 503.533325 C 185.333328 509.799988 181.333328 530.200012 191.46666 542.333313 C 196.266663 547.93335 199.333328 549.400024 209.066666 550.200012 L 217.46666 551 L 217.46666 685.666687 L 217.46666 820.333313 L 208.800003 821.133362 C 194 822.466675 186.133331 831 186.133331 845.400024 C 186.266663 851.666687 186.933334 854.06665 190.133331 858.599976 C 192.266663 861.533325 196.133331 865.133301 198.666672 866.466675 C 203.199997 868.866699 212.266663 869 463.333344 868.733337 L 723.333313 868.333374 L 726.93335 847.133362 C 735.733337 795.533325 752.533325 746.466675 778.666687 696.333313 C 795.599976 663.533325 818.799988 626.333313 848.400024 584.333313 L 854 576.333313 L 854 563.666687 L 854 551 L 863.333313 550.200012 C 874.799988 549.266663 880.266663 546.599976 884.93335 539.533325 C 891.599976 529.533325 890.133362 515 881.733337 507.400024 C 874.266663 500.599976 895.200012 501 537.06665 501 C 215.733337 501 204.53334 501.133362 199.199997 503.533325 Z"/>
        <path id="path3" fill="#ffffff" stroke="none" d="M 219.600006 886.06665 C 217.600006 888.333374 217.333328 897.666626 217.066666 987 L 216.666672 1085.400024 L 209.066666 1085.800049 C 196.666672 1086.466675 189.46666 1091.800049 186.666672 1102.466675 C 184.800003 1109 186.800003 1116.599976 191.46666 1122.333374 C 198.800003 1131 170.800003 1130.333374 526.266663 1130.333374 C 870.133362 1130.199951 866.799988 1130.333374 873.466675 1124.199951 C 877.333313 1120.733398 876.133362 1116.733398 870.666687 1114.06665 C 868.133362 1112.866699 858.799988 1108.466675 850 1104.333374 C 828.666687 1094.199951 814.266663 1084.333374 797.599976 1068.333374 C 755.06665 1027.533325 730.93335 972.599976 725.333313 904.06665 C 724.666687 894.866699 723.333313 886.466675 722.533325 885.533325 C 721.200012 883.93335 679.466675 883.666626 471.333344 883.666626 C 231.600006 883.666626 221.600006 883.799988 219.600006 886.06665 Z"/>
        <path id="Path-copy-4" fill="#ffffff" stroke="none" d="M 198.866669 243.533325 C 190.46666 248.733276 185.266663 259.533325 187 268.06665 C 188.46666 274.733276 193.133331 282.199951 197.800003 285.133301 C 200.066666 286.466675 205.666672 288.06665 210.199997 288.466675 L 218.333328 289.400024 L 218.333328 385.799988 C 218.333328 471.666687 218.600006 482.333313 220.46666 484.200012 C 222.333328 486.06665 252.733337 486.333313 536.06665 486.333313 C 731.400024 486.333313 850.466675 485.799988 851.666687 485 C 853.400024 483.93335 853.799988 471 854.333313 386.733337 L 855 289.666626 L 864.06665 288.599976 C 874.200012 287.533325 878.733337 285.666626 883.93335 280.06665 C 893.533325 269.93335 892.06665 252.866699 880.733337 244.733276 L 876.333313 241.666626 L 539.666687 241.400024 C 211.800003 241 202.866669 241 198.866669 243.533325 Z"/>
        <path id="Path-copy-3" fill="#ffffff" stroke="none" d="M 993.93335 469.266663 C 986.866638 470.733337 982.200012 474.200012 960.733337 493.799988 C 918.866638 532.06665 875.266663 584.200012 844.333313 633.133362 C 808.333313 689.799988 767.799988 777.799988 755.533325 825.666687 C 746.06665 862.599976 745.400024 900.866699 753.799988 938.200012 C 762.333313 975.93335 779.666687 1010.333374 805.666687 1040.866699 C 827.133362 1066.06665 860.06665 1088.866699 889.266663 1098.866699 C 899.400024 1102.333374 906.333313 1103.266602 906.333313 1101.266602 C 906.333313 1100.733398 899.93335 1093.666626 892.06665 1085.533325 C 865.533325 1058.466675 850.06665 1031.133301 843.533325 1000.333374 C 839.93335 983.400024 841.93335 951 847.666687 936.333374 L 849.133362 932.466675 L 862.06665 945.93335 C 870.06665 954.333374 876.466675 959.93335 878.733337 960.466675 C 884.333313 961.799988 891.533325 959.93335 895.400024 956.06665 C 898.599976 952.866699 898.733337 952.466675 897.93335 939.133301 C 897.400024 931.799988 896.06665 920.599976 895 914.333374 C 884.733337 855.266663 895.133362 815.400024 934.333313 763 C 946.200012 747.266663 961.93335 729 963.666687 729 C 966.06665 729 967.533325 743.133362 967.400024 766.333313 C 967.266663 801.799988 971.133362 821.266663 983.666687 847 C 989.266663 858.466675 995.400024 867.93335 1015 895 C 1038.06665 926.599976 1049.666626 953.93335 1051.266724 979.666626 C 1053.666626 1019.266663 1038.199951 1056.06665 1003.93335 1092.06665 C 991.666687 1104.866699 992.200012 1106.333374 1007.266663 1103.800049 C 1038.06665 1098.733398 1073.93335 1078.599976 1102.466675 1050.333374 C 1131.266724 1021.799988 1149.133301 990.733337 1158.866699 952.333374 C 1163.533325 933.266663 1165 920.866699 1165 898.333374 C 1165 829.93335 1139.800049 765.133362 1081.133301 682.333313 C 1028.866699 608.866638 1010.333313 572.599976 1004.466675 532.599976 C 1001.93335 515.93335 1001.799988 506.466675 1003.799988 489.799988 C 1006.200012 471.133362 1004.200012 467 993.93335 469.266663 Z"/>
        <path id="Path-copy-2" fill="#ffffff" stroke="none" d="M 200.199997 503.533325 C 186.333328 509.799988 182.333328 530.200012 192.46666 542.333313 C 197.266663 547.93335 200.333328 549.400024 210.066666 550.200012 L 218.46666 551 L 218.46666 685.666687 L 218.46666 820.333313 L 209.800003 821.133362 C 195 822.466675 187.133331 831 187.133331 845.400024 C 187.266663 851.666687 187.933334 854.06665 191.133331 858.599976 C 193.266663 861.533325 197.133331 865.133301 199.666672 866.466675 C 204.199997 868.866699 213.266663 869 464.333344 868.733337 L 724.333313 868.333374 L 727.93335 847.133362 C 736.733337 795.533325 753.533325 746.466675 779.666687 696.333313 C 796.599976 663.533325 819.799988 626.333313 849.400024 584.333313 L 855 576.333313 L 855 563.666687 L 855 551 L 864.333313 550.200012 C 875.799988 549.266663 881.266663 546.599976 885.93335 539.533325 C 892.599976 529.533325 891.133362 515 882.733337 507.400024 C 875.266663 500.599976 896.200012 501 538.06665 501 C 216.733337 501 205.53334 501.133362 200.199997 503.533325 Z"/>
        <path id="Path-copy" fill="#ffffff" stroke="none" d="M 220.600006 886.06665 C 218.600006 888.333374 218.333328 897.666626 218.066666 987 L 217.666672 1085.400024 L 210.066666 1085.800049 C 197.666672 1086.466675 190.46666 1091.800049 187.666672 1102.466675 C 185.800003 1109 187.800003 1116.599976 192.46666 1122.333374 C 199.800003 1131 171.800003 1130.333374 527.266663 1130.333374 C 871.133362 1130.199951 867.799988 1130.333374 874.466675 1124.199951 C 878.333313 1120.733398 877.133362 1116.733398 871.666687 1114.06665 C 869.133362 1112.866699 859.799988 1108.466675 851 1104.333374 C 829.666687 1094.199951 815.266663 1084.333374 798.599976 1068.333374 C 756.06665 1027.533325 731.93335 972.599976 726.333313 904.06665 C 725.666687 894.866699 724.333313 886.466675 723.533325 885.533325 C 722.200012 883.93335 680.466675 883.666626 472.333344 883.666626 C 232.600006 883.666626 222.600006 883.799988 220.600006 886.06665 Z"/>
    </g>
</svg>
