<?xml version="1.0" encoding="UTF-8"?>
<!-- Generated by Pixelmator Pro 3.6.14 -->
<svg width="1365" height="1365" viewBox="0 0 1365 1365" xmlns="http://www.w3.org/2000/svg">
    <g id="Group">
        <path id="Path" fill="#ffffff" stroke="none" d="M 157.199997 356.866638 C 138.933334 357.666687 136 358.866638 136 365 C 136 366.866638 144 399.133362 153.866669 436.466675 C 188.399994 567.533325 205.733337 635 205.866669 639 C 206 642.866638 205.333328 643.400024 189.333328 651.133362 C 175.333328 657.93335 171.199997 659.400024 163.333328 660.06665 C 109.199997 664.599976 97.066666 666.200012 93.066666 669.93335 C 90.400002 672.333313 90 677.266663 92.133331 681.266663 C 94.800003 686.333313 110.533333 692.333313 242 739.266663 C 331.333344 771.133362 401.200012 793 414.133331 793 C 416.533325 793 517.466675 755.400024 557.06665 739.799988 C 566 736.333313 569.333313 736.333313 573.866638 739.799988 C 576.666687 741.93335 577.333313 743.533325 577.06665 746.866638 C 576.666687 750.466675 575.599976 751.533325 569.333313 754.599976 C 561.06665 758.466675 511.866669 777.666687 411.333344 816.200012 C 372.799988 831 342.666656 843.266663 341.733337 844.466675 C 339.200012 847.93335 339.600006 853 342.799988 858.200012 L 345.466675 862.733337 L 425.733337 861.93335 C 517.06665 861 510.799988 861.666626 550.666687 848.733337 C 606.666687 830.466675 761.333313 776.599976 819.333313 755 C 842.666687 746.333313 859.866638 740.599976 862.666687 740.599976 C 865.866638 740.733337 868.133362 741.799988 870.266663 744.333313 C 874 748.599976 874 749.400024 870.400024 753.400024 C 867.599976 756.466675 815.333313 776.733337 742.799988 803 C 731.466675 807 721.866638 810.599976 721.599976 811 C 720.533325 812.06665 730 828.06665 734.799988 832.866638 C 738.266663 836.466675 741.200012 838.333313 744.799988 838.866638 C 757.06665 840.599976 913.733337 842.599976 1000 842.06665 C 1100.666626 841.400024 1114 840.599976 1154.666626 833.666687 C 1207.599976 824.733337 1250.400024 808.333313 1268.133301 790.06665 C 1280.533325 777.400024 1284.266724 758.466675 1277.333374 744.333313 C 1270 729.266663 1253.733276 718.06665 1216.533325 702.333313 C 1181.06665 687.400024 1179.199951 686.333313 1170.266724 675.93335 C 1155.733276 659.400024 1135.466675 639.266663 1125.333374 631.799988 C 1101.199951 613.799988 1074.266724 604.06665 1030.666626 597.400024 C 1016.666687 595.400024 991.733337 595.133362 733.333313 594.333313 L 451.333344 593.666687 L 440.799988 590.733337 C 420 584.733337 395.600006 571.133362 383.466675 558.599976 C 380.666656 555.666687 343.733337 510.200012 301.466675 457.533325 C 243.199997 384.866638 223.333328 361 219.333328 358.733337 C 214.399994 355.93335 212.53334 355.666687 194 355.93335 C 183.066666 356.06665 166.399994 356.466675 157.199997 356.866638 Z M 1110 649.666687 C 1115.466675 652.333313 1146.266724 681.93335 1149.199951 687.266663 L 1150.800049 690.333313 L 1090.400024 690.333313 C 1045.06665 690.200012 1029.466675 689.799988 1027.866699 688.599976 C 1023.733337 685.533325 1022.666687 681.133362 1022.666687 668.200012 C 1022.666687 657.400024 1023.06665 654.599976 1025.466675 650.733337 L 1028.266724 646.200012 L 1066.533325 646.599976 C 1101.199951 647 1105.199951 647.266663 1110 649.666687 Z"/>
        <path id="path1" fill="#ffffff" stroke="none" d="M 666.533325 826.733337 C 654.266663 831.266663 644.666687 840.466675 638.93335 852.866638 C 635.733337 859.533325 635.333313 861.93335 635.333313 875.666626 C 635.333313 890.06665 635.599976 891.533325 639.599976 899.93335 C 644.266663 909.93335 651.866638 918.200012 660.266663 922.466675 C 668.799988 926.866699 683.733337 927.400024 693.599976 923.666626 C 704.133362 919.799988 713.599976 910.866699 718.93335 899.93335 C 723.06665 891.400024 723.333313 890.200012 723.333313 875.666626 C 723.333313 861.799988 722.93335 859.533325 719.733337 852.733337 C 715.200012 843.133362 707.333313 834.466675 698.400024 829.666687 C 690.133362 825.133362 674.666687 823.666687 666.533325 826.733337 Z"/>
        <path id="path2" fill="#ffffff" stroke="none" d="M 592.133362 853 C 553.866638 866.06665 555.200012 865 556.533325 879 C 557.599976 889.133301 563.866638 902.200012 570.400024 907.666626 C 573.06665 909.799988 578.93335 912.866699 583.333313 914.333374 C 593.333313 917.666626 620.400024 923.266663 632.799988 924.466675 L 642 925.400024 L 635.733337 918.466675 C 619.333313 900.333374 614.266663 872.466675 623.06665 850.333313 C 625.06665 845.666687 626.400024 841.799988 626.266663 841.666687 C 626.133362 841.666687 610.799988 846.733337 592.133362 853 Z"/>
    </g>
</svg>
