<?xml version="1.0" encoding="UTF-8"?>
<!-- Generated by Pixelmator Pro 3.6.14 -->
<svg width="1365" height="1365" viewBox="0 0 1365 1365" xmlns="http://www.w3.org/2000/svg">
    <g id="Group">
        <path id="Path" fill="#ffffff" stroke="none" d="M 540.266663 483.133362 C 533.333313 488.599976 531.866638 492.733337 532.799988 503.666687 L 533.733337 513 L 528.533325 513 C 516 513.133362 483.733337 515.799988 473.466675 517.799988 C 450.533325 522.06665 448.399994 523.133362 389.333344 562.333313 C 358.933319 582.599976 324.266663 605.400024 312.399994 613 C 300.399994 620.733337 290.666656 627.400024 290.666656 627.799988 C 290.666656 628.333313 292 629 293.733337 629.533325 C 303.466675 631.93335 328.533325 653.266663 338.266663 667.266663 C 343.200012 674.466675 343.333344 674.599976 348.666656 673.799988 C 374 670.06665 493.600006 658.200012 535.333313 655 C 574.799988 652.200012 600.400024 650.333313 602.400024 650.333313 C 604.93335 650.333313 604.400024 648.733337 598 639 C 588.133362 623.93335 588.133362 624.466675 587.200012 553.799988 C 586.266663 486.200012 586.400024 487.533325 579.06665 482.733337 C 576.266663 480.866638 572.133362 480.333313 560.133362 480.06665 C 545.333313 479.799988 544.533325 479.93335 540.266663 483.133362 Z"/>
        <path id="path1" fill="#ffffff" stroke="none" d="M 96.26667 491.533325 C 87.73333 497 88 492.866638 88 608.599976 L 88 713.666687 L 92 719.666687 L 96 725.666687 L 96 721 C 96 708.733337 106.933334 681 117.866669 665.799988 C 142.266663 631.533325 189.600006 608.466675 234.53334 608.866638 C 242.933334 608.866638 250.800003 609.266663 252.133331 609.666687 C 253.866669 610.200012 254.399994 609.93335 254 608.733337 C 252.53334 604.466675 252.133331 597.133362 251.333328 558.599976 C 250.800003 536.06665 249.866669 515.266663 249.066666 512.333313 C 248.399994 509.400024 246.399994 504.733337 244.53334 502.06665 C 238.666672 493 237.46666 492.733337 191.333328 491.533325 C 168.666672 491 138.933334 490.200012 125.333336 489.666687 C 101.73333 488.866638 100.533333 488.866638 96.26667 491.533325 Z"/>
        <path id="path2" fill="#ffffff" stroke="none" d="M 621.333313 581.93335 C 611.466675 583.400024 612 582.733337 612 594.06665 C 612 616.866638 616.266663 629 626.533325 635.666687 C 636.133362 641.799988 658.93335 646.599976 678.93335 646.866638 C 687.466675 647 694.799988 646.599976 695.200012 646.200012 C 696.400024 645.133362 688.400024 621.799988 683.733337 612.466675 C 675.06665 595.400024 660.266663 584.866638 641.333313 582.333313 C 631.06665 581 627.200012 581 621.333313 581.93335 Z"/>
        <path id="path3" fill="#ffffff" stroke="none" d="M 1038.666626 631.266663 C 992.533325 638.599976 956.400024 670.466675 943.200012 715.266663 C 930 760.466675 947.06665 813.266663 983.866638 841.266663 C 1018.533325 867.400024 1067.199951 872.200012 1105.599976 852.866638 C 1142.800049 834.200012 1165.733276 799.266663 1170 754.599976 C 1171.866699 735.666687 1165.333374 708.866638 1154.266724 689.133362 C 1147.599976 677.400024 1130.666626 658.866638 1119.599976 651.400024 C 1108.533325 643.93335 1090.93335 635.93335 1080.266724 633.533325 C 1071.599976 631.533325 1045.466675 630.200012 1038.666626 631.266663 Z M 1070 685.266663 C 1090.666626 690.466675 1108.400024 707.93335 1114.93335 729.400024 C 1117.199951 737 1117.599976 741 1117.06665 752.06665 C 1116.533325 764.06665 1115.866699 766.866638 1112 775 C 1099.333374 801.533325 1068.666626 817.400024 1041.599976 811.266663 C 1012.799988 804.733337 994.266663 784.333313 990 754.333313 C 987.733337 738.06665 996.133362 715.400024 1009.333313 702.200012 C 1025.599976 685.799988 1047.866699 679.666687 1070 685.266663 Z"/>
        <path id="path4" fill="#ffffff" stroke="none" d="M 1038.533325 706.733337 C 1028.533325 711 1023.466675 714.733337 1018.799988 721.400024 C 1006 740.06665 1008.133362 764.06665 1023.866638 779.666687 C 1037.199951 792.733337 1054.800049 795.93335 1071.866699 788.333313 C 1099.866699 775.666687 1106 736.733337 1083.199951 715.666687 C 1075.06665 708.200012 1067.199951 704.866638 1055.599976 704.200012 C 1047.599976 703.666687 1044.800049 704.06665 1038.533325 706.733337 Z"/>
        <path id="path5" fill="#ffffff" stroke="none" d="M 205.066666 634.200012 C 159.733337 644.200012 126.26667 677.799988 115.199997 724.733337 C 112.533333 735.799988 112.533333 760.06665 115.199997 772.599976 C 119.333336 792.333313 130.53334 814.333313 143.600006 828.333313 C 178.800003 866.06665 233.46666 875.799988 279.733337 852.466675 C 325.466675 829.400024 350.666656 776.599976 340.133331 725.666687 C 332.399994 687.93335 307.066681 656.333313 272.533325 641 C 253.199997 632.466675 225.600006 629.666687 205.066666 634.200012 Z M 238.800003 685 C 262 689.400024 282.666656 708.866638 288.799988 732.200012 C 293.200012 748.599976 289.866669 769.666687 280.799988 783 C 268.266663 801.533325 252.266663 811.133362 231.333328 812.599976 C 200.53334 814.733337 171.866669 792.466675 165.46666 761.266663 C 158.53334 727.93335 179.600006 694.733337 213.333328 685.799988 C 222.266663 683.400024 229.333328 683.266663 238.800003 685 Z"/>
        <path id="path6" fill="#ffffff" stroke="none" d="M 216.399994 706.866638 C 203.333328 711.133362 196.133331 717.400024 189.199997 730.333313 C 184.800003 738.599976 184.666672 757.266663 188.800003 766.466675 C 192.933334 775.400024 200.399994 783 209.066666 787.266663 C 218.933334 792.06665 234.53334 792.466675 244.266663 788.06665 C 265.600006 778.333313 275.866669 752.200012 266.399994 731.400024 C 259.200012 715.93335 246.666672 706.866638 230.666672 705.666687 C 225.199997 705.266663 219.866669 705.666687 216.399994 706.866638 Z"/>
        <path id="path7" fill="#ffffff" stroke="none" d="M 779.333313 635.533325 C 777.866638 636.200012 770.133362 642.466675 762 649.533325 C 737.599976 671.133362 730.93335 673.266663 689.466675 673 C 633.200012 672.866638 544.533325 677.266663 472.666656 683.799988 C 448.533325 685.93335 422 688.333313 413.866669 689.133362 C 405.866669 689.799988 388.266663 690.599976 374.933319 690.733337 C 354 691 350.799988 691.266663 351.466675 693 C 361.600006 718.06665 363.333344 726.866638 363.333344 751 C 363.200012 767.133362 362.666656 773.266663 360.266663 782.866638 C 356.933319 796.200012 348.933319 814.200012 342.133331 823.533325 L 337.733337 829.799988 L 567.200012 829.266663 L 796.666687 828.733337 L 798.93335 825.93335 C 800.266663 824.333313 802.533325 819.133362 804.133362 814.333313 C 805.733337 809.533325 808.133362 804.333313 809.599976 802.733337 C 820.400024 790.866638 872.266663 776.599976 905.06665 776.466675 L 921.466675 776.333313 L 920.666687 771.666687 C 914.133362 737.266663 920.533325 700.466675 937.06665 676.06665 C 944.93335 664.466675 964.666687 645.93335 976.799988 638.866638 C 978.533325 637.799988 968.666687 637.533325 940.533325 637.533325 C 898.266663 637.666687 794.133362 635.93335 786.666687 635 C 784.133362 634.599976 780.799988 634.866638 779.333313 635.533325 Z"/>
        <path id="path8" fill="#ffffff" stroke="none" d="M 1188.133301 716.866638 C 1192.133301 724.733337 1194 749 1192 766.333313 C 1190.533325 779.799988 1188.533325 789.93335 1186 796.06665 C 1185.06665 798.466675 1186.400024 798.599976 1219.733276 798.06665 L 1254.400024 797.666687 L 1257.866699 800.866638 C 1262.533325 805.266663 1262.533325 811.93335 1257.866699 816.599976 L 1254.400024 820.06665 L 1213.599976 819.400024 L 1172.666626 818.866638 L 1167.599976 829.400024 C 1164.800049 835.266663 1162.800049 840.06665 1162.93335 840.200012 C 1163.199951 840.333313 1192.133301 840.06665 1227.333374 839.666687 C 1285.733276 839 1291.733276 838.733337 1295.06665 836.599976 C 1303.06665 831.400024 1303.199951 830.06665 1302.93335 797.133362 C 1302.666626 770.200012 1302.400024 766.599976 1300.133301 763.666687 C 1298.400024 761.266663 1283.06665 753.93335 1245.199951 737.400024 C 1216.266724 724.733337 1191.06665 713.799988 1189.199951 713.133362 L 1185.866699 711.93335 L 1188.133301 716.866638 Z"/>
    </g>
</svg>
